<svg width="900" height="800" viewBox="0 0 900 800" fill="none" xmlns="http://www.w3.org/2000/svg">
<rect x="200" width="100" height="100" fill="black"/>
<rect x="200" y="100" width="100" height="100" fill="black"/>
<rect x="200" y="200" width="100" height="100" fill="black"/>
<rect x="200" y="300" width="100" height="100" fill="black"/>
<rect x="200" y="400" width="100" height="100" fill="black"/>
<rect x="300" y="400" width="100" height="100" fill="black"/>
<rect width="100" height="100" transform="matrix(1 0 0 -1 200 800)" fill="black"/>
<rect x="100" y="100" width="100" height="100" fill="black"/>
<rect width="100" height="100" transform="matrix(1 0 0 -1 100 700)" fill="black"/>
<rect width="100" height="100" transform="matrix(1 0 0 -1 200 700)" fill="black"/>
<rect width="100" height="100" transform="matrix(1 0 0 -1 300 700)" fill="black"/>
<rect width="100" height="100" transform="matrix(1 0 0 -1 600 700)" fill="black"/>
<rect width="100" height="100" transform="matrix(1 0 0 -1 500 700)" fill="black"/>
<rect x="700" y="100" width="100" height="100" fill="black"/>
<rect width="100" height="100" transform="matrix(1 0 0 -1 700 700)" fill="black"/>
<rect x="800" y="300" width="100" height="100" fill="black"/>
<rect x="700" y="300" width="100" height="100" fill="black"/>
<rect x="600" y="300" width="100" height="100" fill="black"/>
<rect x="500" y="300" width="100" height="100" fill="black"/>
<rect y="300" width="100" height="100" fill="black"/>
<rect x="100" y="200" width="100" height="100" fill="black"/>
<rect x="100" y="300" width="100" height="100" fill="black"/>
<rect x="100" y="400" width="100" height="100" fill="black"/>
<rect width="100" height="100" transform="matrix(1 0 0 -1 100 600)" fill="black"/>
<rect width="100" height="100" transform="matrix(1 0 0 -1 200 600)" fill="black"/>
<rect width="100" height="100" transform="matrix(1 0 0 -1 300 600)" fill="black"/>
<rect width="100" height="100" transform="matrix(1 0 0 -1 600 600)" fill="black"/>
<rect width="100" height="100" transform="matrix(1 0 0 -1 500 600)" fill="black"/>
<rect x="700" y="200" width="100" height="100" fill="black"/>
<rect width="100" height="100" transform="matrix(1 0 0 -1 700 600)" fill="black"/>
<rect x="800" y="400" width="100" height="100" fill="black"/>
<rect x="700" y="400" width="100" height="100" fill="black"/>
<rect x="600" y="400" width="100" height="100" fill="black"/>
<rect x="500" y="400" width="100" height="100" fill="black"/>
<rect y="400" width="100" height="100" fill="black"/>
<rect x="400" width="100" height="100" fill="black"/>
<rect x="400" y="100" width="100" height="100" fill="black"/>
<rect x="400" y="600" width="100" height="100" fill="black"/>
<rect width="100" height="100" transform="matrix(1 0 0 -1 400 800)" fill="black"/>
<rect x="600" width="100" height="100" fill="black"/>
<rect x="600" y="100" width="100" height="100" fill="black"/>
<rect x="600" y="200" width="100" height="100" fill="black"/>
<rect width="100" height="100" transform="matrix(1 0 0 -1 600 800)" fill="black"/>
<rect x="300" width="100" height="100" fill="black"/>
<rect x="300" y="100" width="100" height="100" fill="black"/>
<rect x="300" y="200" width="100" height="100" fill="black"/>
<rect width="100" height="100" transform="matrix(1 0 0 -1 300 800)" fill="black"/>
<rect x="500" width="100" height="100" fill="black"/>
<rect x="500" y="100" width="100" height="100" fill="black"/>
<rect x="500" y="200" width="100" height="100" fill="black"/>
<rect width="100" height="100" transform="matrix(1 0 0 -1 500 800)" fill="black"/>
</svg>
